<svg width="36" height="36" viewBox="0 0 36 36" fill="none" xmlns="http://www.w3.org/2000/svg">
<path d="M18 1.47656C13.6177 1.47656 9.41491 3.21742 6.31616 6.31616C3.21742 9.41491 1.47656 13.6177 1.47656 18C1.47656 22.3823 3.21742 26.5851 6.31616 29.6838C9.41491 32.7826 13.6177 34.5234 18 34.5234C20.1699 34.5234 22.3185 34.096 24.3232 33.2657C26.328 32.4353 28.1495 31.2182 29.6838 29.6838C31.2182 28.1495 32.4353 26.328 33.2657 24.3232C34.096 22.3185 34.5234 20.1699 34.5234 18C34.5234 15.8301 34.096 13.6815 33.2657 11.6768C32.4353 9.67204 31.2182 7.85051 29.6838 6.31616C28.1495 4.78182 26.328 3.56471 24.3232 2.73433C22.3185 1.90395 20.1699 1.47656 18 1.47656ZM18 7.24219C23.9339 7.24219 28.7578 12.0661 28.7578 18C28.7578 23.9339 23.9339 28.7578 18 28.7578C12.0661 28.7578 7.24219 23.9339 7.24219 18C7.24219 12.0661 12.0661 7.24219 18 7.24219ZM18 8.50781C16.5644 8.50781 15.2046 8.82563 13.9859 9.39389C14.7978 11.7058 16.1872 14.625 18 14.625C19.8157 14.625 21.1589 11.6965 21.9904 9.38285C20.7777 8.82155 19.4262 8.50781 18 8.50781ZM24.9435 11.5228C22.9949 13.0094 20.6445 15.2346 21.205 16.9599C21.7661 18.687 24.9673 19.0593 27.4248 19.1351C27.4689 18.7628 27.4922 18.3843 27.4922 18C27.4922 15.4939 26.525 13.2179 24.9435 11.5228ZM11.0407 11.5399C9.46849 13.2331 8.50781 15.5023 8.50781 18C8.50781 18.3902 8.53172 18.7747 8.57728 19.1524C11.0265 19.0944 14.2291 18.6748 14.789 16.9516C15.3496 15.226 12.9833 13.0456 11.0407 11.5399ZM15.9758 14.6085C15.8483 14.6121 15.7249 14.6541 15.6217 14.7291C15.486 14.8277 15.395 14.9763 15.3688 15.142C15.3425 15.3077 15.3832 15.4771 15.4818 15.6129C15.5805 15.7487 15.729 15.8397 15.8947 15.866C16.0605 15.8923 16.2299 15.8516 16.3657 15.753C16.4329 15.7042 16.4899 15.6426 16.5333 15.5717C16.5767 15.5009 16.6058 15.4221 16.6188 15.34C16.6318 15.258 16.6285 15.1741 16.6091 15.0933C16.5897 15.0125 16.5546 14.9363 16.5057 14.8691C16.4452 14.7858 16.3653 14.7186 16.273 14.6732C16.1807 14.6278 16.0786 14.6056 15.9758 14.6085ZM20.0242 14.6085C20.0093 14.6081 19.9944 14.6082 19.9794 14.6088C19.8842 14.6129 19.7911 14.6383 19.7071 14.6834C19.6231 14.7284 19.5503 14.7919 19.4943 14.869C19.4454 14.9362 19.4103 15.0124 19.3909 15.0933C19.3715 15.1741 19.3682 15.2579 19.3812 15.34C19.3942 15.4221 19.4232 15.5008 19.4667 15.5717C19.5101 15.6426 19.5671 15.7042 19.6343 15.753C19.7701 15.8516 19.9395 15.8923 20.1053 15.866C20.271 15.8398 20.4195 15.7487 20.5182 15.613C20.6168 15.4772 20.6575 15.3078 20.6312 15.1421C20.605 14.9763 20.514 14.8278 20.3783 14.7291C20.2751 14.6542 20.1517 14.6122 20.0242 14.6085ZM18 15.75C17.4033 15.75 16.831 15.9871 16.409 16.409C15.9871 16.831 15.75 17.4033 15.75 18C15.75 18.5967 15.9871 19.169 16.409 19.591C16.831 20.0129 17.4033 20.25 18 20.25C18.5967 20.25 19.169 20.0129 19.591 19.591C20.0129 19.169 20.25 18.5967 20.25 18C20.25 17.4033 20.0129 16.831 19.591 16.409C19.169 15.9871 18.5967 15.75 18 15.75ZM14.7447 18.4245C14.6814 18.4254 14.6185 18.4358 14.5583 18.4554C14.4792 18.4811 14.406 18.5221 14.3428 18.576C14.2796 18.63 14.2276 18.6959 14.1899 18.7699C14.1522 18.844 14.1294 18.9247 14.1229 19.0076C14.1163 19.0905 14.1262 19.1738 14.1519 19.2528C14.2037 19.4124 14.3169 19.5449 14.4664 19.6211C14.6159 19.6973 14.7896 19.7109 14.9492 19.6591C15.0283 19.6334 15.1015 19.5924 15.1647 19.5385C15.2279 19.4845 15.2798 19.4186 15.3176 19.3446C15.3553 19.2706 15.3781 19.1898 15.3846 19.107C15.3911 19.0241 15.3813 18.9408 15.3556 18.8618C15.3139 18.7332 15.232 18.6213 15.1221 18.5427C15.0122 18.464 14.8799 18.4226 14.7447 18.4245ZM21.2737 18.425C21.1355 18.419 20.9991 18.4585 20.8855 18.5373C20.7718 18.6162 20.6871 18.7301 20.6444 18.8617C20.6187 18.9407 20.6089 19.024 20.6154 19.1069C20.6219 19.1897 20.6447 19.2705 20.6824 19.3445C20.7202 19.4186 20.7721 19.4844 20.8353 19.5384C20.8985 19.5924 20.9718 19.6334 21.0508 19.659C21.2104 19.7109 21.3841 19.6972 21.5336 19.621C21.6831 19.5449 21.7962 19.4124 21.8481 19.2528C21.8738 19.1738 21.8837 19.0905 21.8771 19.0076C21.8706 18.9247 21.8478 18.844 21.8101 18.7699C21.7724 18.6959 21.7204 18.63 21.6572 18.576C21.594 18.5221 21.5208 18.4811 21.4417 18.4554C21.3873 18.4377 21.3308 18.4275 21.2737 18.425ZM14.7949 20.3736C13.2768 20.3809 11.2624 21.5571 9.70256 22.6185C11.0405 25.021 13.3912 26.7785 16.1814 27.318C16.8838 24.9703 17.4765 21.7902 16.0094 20.7243C15.6681 20.4763 15.2544 20.3714 14.7949 20.3736ZM21.1944 20.375C20.7318 20.375 20.3161 20.4816 19.9748 20.7295C18.5056 21.7969 19.1407 24.9557 19.828 27.3163C22.6185 26.7738 24.9684 25.0128 26.3038 22.6072C24.7565 21.5368 22.7224 20.375 21.1944 20.3749V20.375ZM18 20.783C17.8322 20.783 17.6712 20.8496 17.5525 20.9683C17.4339 21.087 17.3672 21.2479 17.3672 21.4158C17.3672 21.5836 17.4339 21.7446 17.5525 21.8632C17.6712 21.9819 17.8322 22.0486 18 22.0486C18.1678 22.0486 18.3288 21.9819 18.4475 21.8632C18.5661 21.7446 18.6328 21.5836 18.6328 21.4158C18.6328 21.2479 18.5661 21.087 18.4475 20.9683C18.3288 20.8496 18.1678 20.783 18 20.783Z" fill="white"/>
</svg>
